<svg width="18" height="15" viewBox="0 0 18 15" fill="none" xmlns="http://www.w3.org/2000/svg">
<path fill-rule="evenodd" clip-rule="evenodd" d="M18 9.5C18 9.23478 17.8946 8.98043 17.7071 8.79289C17.5196 8.60536 17.2652 8.5 17 8.5H5C4.20435 8.5 3.44129 8.18393 2.87868 7.62132C2.31607 7.05871 2 6.29565 2 5.5V1.5C2 1.23478 1.89464 0.98043 1.70711 0.792893C1.51957 0.605357 1.26522 0.5 1 0.5C0.734783 0.5 0.480429 0.605357 0.292892 0.792893C0.105356 0.98043 0 1.23478 0 1.5V5.5C0 6.82608 0.526785 8.09785 1.46447 9.03553C2.40215 9.97322 3.67392 10.5 5 10.5H17C17.2652 10.5 17.5196 10.3946 17.7071 10.2071C17.8946 10.0196 18 9.76522 18 9.5Z" fill="#707070"/>
<path fill-rule="evenodd" clip-rule="evenodd" d="M17.707 10.2069C17.8945 10.0194 17.9998 9.76508 17.9998 9.49992C17.9998 9.23475 17.8945 8.98045 17.707 8.79292L13.707 4.79292C13.5184 4.61076 13.2658 4.50997 13.0036 4.51224C12.7414 4.51452 12.4906 4.61969 12.3052 4.8051C12.1198 4.99051 12.0146 5.24132 12.0123 5.50352C12.01 5.76571 12.1108 6.01832 12.293 6.20692L15.586 9.49992L12.293 12.7929C12.1975 12.8852 12.1213 12.9955 12.0689 13.1175C12.0165 13.2395 11.9889 13.3707 11.9877 13.5035C11.9866 13.6363 12.0119 13.768 12.0622 13.8909C12.1125 14.0138 12.1867 14.1254 12.2806 14.2193C12.3745 14.3132 12.4861 14.3875 12.609 14.4377C12.7319 14.488 12.8636 14.5133 12.9964 14.5122C13.1292 14.511 13.2604 14.4834 13.3824 14.431C13.5044 14.3786 13.6148 14.3024 13.707 14.2069L17.707 10.2069Z" fill="#707070"/>
</svg>
